<?xml version="1.0" encoding="UTF-8" standalone="no"?>
<svg xmlns="http://www.w3.org/2000/svg" width="50.638767mm" height="4.4741454mm" viewBox="0 0 50.638767 4.4741454" version="1.1">
	<g transform="translate(-27.514601,-117.65493)" style="fill:#ebedf0">
		<path d="m 27.514601,121.12681 v -3.4091 h 0.418579 v 1.22319 q 0.293005,-0.33952 0.73949,-0.33952 0.274401,0 0.476715,0.1093 0.202313,0.10697 0.288354,0.29765 0.08837,0.19069 0.08837,0.55346 v 1.56502 h -0.418579 v -1.56502 q 0,-0.31394 -0.137201,-0.45579 -0.134876,-0.14418 -0.383698,-0.14418 -0.186035,0 -0.351141,0.0977 -0.162781,0.0953 -0.232544,0.26045 -0.06976,0.16511 -0.06976,0.45579 v 1.35108 z" />
		<path d="m 30.007472,119.892 q 0,-0.686 0.381372,-1.01622 0.318585,-0.2744 0.776697,-0.2744 0.509271,0 0.832507,0.33486 0.323236,0.33254 0.323236,0.92088 0,0.47671 -0.144177,0.75112 -0.141852,0.27207 -0.416254,0.42323 -0.272076,0.15115 -0.595312,0.15115 -0.518573,0 -0.839484,-0.33254 -0.318585,-0.33254 -0.318585,-0.95808 z m 0.430206,0 q 0,0.47439 0.206964,0.71158 0.206964,0.23487 0.520899,0.23487 0.311608,0 0.518573,-0.23719 0.206964,-0.2372 0.206964,-0.72321 0,-0.45811 -0.20929,-0.69298 -0.206964,-0.2372 -0.516247,-0.2372 -0.313935,0 -0.520899,0.23487 -0.206964,0.23487 -0.206964,0.70926 z" />
		<path d="m 32.64452,120.38964 0.413928,-0.0651 q 0.03488,0.24882 0.193012,0.38137 0.160455,0.13255 0.446484,0.13255 0.288355,0 0.427881,-0.11627 0.139526,-0.1186 0.139526,-0.27673 0,-0.14185 -0.123248,-0.22324 -0.08604,-0.0558 -0.427881,-0.14185 -0.460437,-0.11627 -0.639496,-0.19999 -0.176733,-0.086 -0.269751,-0.23487 -0.09069,-0.15115 -0.09069,-0.33253 0,-0.16511 0.07441,-0.30464 0.07674,-0.14185 0.206964,-0.23487 0.09767,-0.0721 0.2651,-0.12092 0.169757,-0.0512 0.362769,-0.0512 0.29068,0 0.509271,0.0837 0.220917,0.0837 0.325562,0.22789 0.104644,0.14185 0.144177,0.38137 l -0.409277,0.0558 q -0.02791,-0.19068 -0.162781,-0.29765 -0.13255,-0.10697 -0.376721,-0.10697 -0.288355,0 -0.411603,0.0953 -0.123248,0.0953 -0.123248,0.22324 0,0.0814 0.05116,0.1465 0.05116,0.0674 0.160456,0.11163 0.06279,0.0232 0.369744,0.10697 0.444159,0.11859 0.618567,0.19533 0.176734,0.0744 0.276728,0.21859 0.09999,0.14418 0.09999,0.35812 0,0.20929 -0.123249,0.39533 -0.120923,0.18371 -0.351141,0.28602 -0.230219,0.1 -0.520899,0.1 -0.481365,0 -0.734838,-0.19999 -0.251148,-0.19999 -0.320911,-0.59299 z" />
		<path d="m 36.107099,120.75241 0.06046,0.36975 q -0.176734,0.0372 -0.31626,0.0372 -0.227893,0 -0.353467,-0.0721 -0.125574,-0.0721 -0.176733,-0.18836 -0.05116,-0.1186 -0.05116,-0.49532 v -1.42085 h -0.306958 v -0.32556 h 0.306958 v -0.61159 l 0.416254,-0.25115 v 0.86274 h 0.420904 v 0.32556 h -0.420904 v 1.4441 q 0,0.17906 0.02093,0.23022 0.02325,0.0512 0.07209,0.0814 0.05116,0.0302 0.144177,0.0302 0.06976,0 0.18371,-0.0163 z" />
		<path d="m 36.516376,121.12681 v -2.46962 h 0.374396 v 0.34649 q 0.116272,-0.18138 0.309284,-0.29068 0.193011,-0.11162 0.439508,-0.11162 0.274402,0 0.448809,0.11395 0.176734,0.11394 0.248823,0.31858 0.293005,-0.43253 0.762744,-0.43253 0.367419,0 0.565081,0.20464 0.197663,0.20231 0.197663,0.62554 v 1.69525 H 39.44643 v -1.55572 q 0,-0.25115 -0.04186,-0.36044 -0.03953,-0.11162 -0.146503,-0.17906 -0.10697,-0.0674 -0.251147,-0.0674 -0.260449,0 -0.432532,0.17441 -0.172082,0.17208 -0.172082,0.55345 v 1.4348 h -0.418579 v -1.60455 q 0,-0.27906 -0.10232,-0.41858 -0.102319,-0.13953 -0.334863,-0.13953 -0.176733,0 -0.327887,0.093 -0.148828,0.093 -0.216266,0.27207 -0.06744,0.17906 -0.06744,0.51625 v 1.28132 z" />
		<path d="m 42.095105,120.82218 q -0.232544,0.19766 -0.44881,0.27905 -0.21394,0.0814 -0.460437,0.0814 -0.406951,0 -0.625543,-0.19766 -0.218591,-0.19999 -0.218591,-0.50927 0,-0.18139 0.08139,-0.33022 0.08372,-0.15115 0.216266,-0.24184 0.134876,-0.0907 0.302307,-0.1372 0.123249,-0.0326 0.372071,-0.0628 0.506945,-0.0605 0.746466,-0.14418 0.0023,-0.086 0.0023,-0.10929 0,-0.2558 -0.118597,-0.36045 -0.160456,-0.14185 -0.476715,-0.14185 -0.295331,0 -0.437183,0.10465 -0.139526,0.10232 -0.206964,0.36509 l -0.409277,-0.0558 q 0.05581,-0.26277 0.183709,-0.42323 0.1279,-0.16278 0.369745,-0.24882 0.241846,-0.0884 0.560431,-0.0884 0.31626,0 0.513922,0.0744 0.197663,0.0744 0.29068,0.18836 0.09302,0.11162 0.130225,0.2837 0.02093,0.10697 0.02093,0.38602 v 0.55811 q 0,0.58368 0.02558,0.73949 0.02791,0.15348 0.106971,0.29533 h -0.437183 q -0.06511,-0.13023 -0.08372,-0.30463 z m -0.03488,-0.93483 q -0.227893,0.093 -0.683679,0.15813 -0.258124,0.0372 -0.365094,0.0837 -0.106971,0.0465 -0.165107,0.13721 -0.05814,0.0884 -0.05814,0.19766 0,0.16743 0.125574,0.27905 0.127899,0.11162 0.37207,0.11162 0.241846,0 0.430207,-0.10464 0.18836,-0.10697 0.276727,-0.29068 0.06744,-0.14185 0.06744,-0.41858 z" />
		<path d="m 42.96482,120.38964 0.413928,-0.0651 q 0.03488,0.24882 0.193012,0.38137 0.160455,0.13255 0.446484,0.13255 0.288355,0 0.427881,-0.11627 0.139526,-0.1186 0.139526,-0.27673 0,-0.14185 -0.123248,-0.22324 -0.08604,-0.0558 -0.427881,-0.14185 -0.460437,-0.11627 -0.639496,-0.19999 -0.176733,-0.086 -0.269751,-0.23487 -0.09069,-0.15115 -0.09069,-0.33253 0,-0.16511 0.07441,-0.30464 0.07674,-0.14185 0.206964,-0.23487 0.09767,-0.0721 0.265101,-0.12092 0.169757,-0.0512 0.362768,-0.0512 0.29068,0 0.509271,0.0837 0.220917,0.0837 0.325562,0.22789 0.104645,0.14185 0.144177,0.38137 l -0.409277,0.0558 q -0.02791,-0.19068 -0.162781,-0.29765 -0.13255,-0.10697 -0.376721,-0.10697 -0.288355,0 -0.411603,0.0953 -0.123248,0.0953 -0.123248,0.22324 0,0.0814 0.05116,0.1465 0.05116,0.0674 0.160456,0.11163 0.06279,0.0232 0.369745,0.10697 0.444158,0.11859 0.618566,0.19533 0.176734,0.0744 0.276728,0.21859 0.09999,0.14418 0.09999,0.35812 0,0.20929 -0.123249,0.39533 -0.120923,0.18371 -0.351141,0.28602 -0.230219,0.1 -0.520898,0.1 -0.481366,0 -0.734839,-0.19999 -0.251148,-0.19999 -0.320911,-0.59299 z" />
		<path d="m 46.4274,120.75241 0.06046,0.36975 q -0.176733,0.0372 -0.31626,0.0372 -0.227893,0 -0.353466,-0.0721 -0.125574,-0.0721 -0.176734,-0.18836 -0.05116,-0.1186 -0.05116,-0.49532 v -1.42085 h -0.306958 v -0.32556 h 0.306958 v -0.61159 l 0.416253,-0.25115 v 0.86274 H 46.4274 v 0.32556 h -0.420905 v 1.4441 q 0,0.17906 0.02093,0.23022 0.02325,0.0512 0.07209,0.0814 0.05116,0.0302 0.144177,0.0302 0.06976,0 0.18371,-0.0163 z" />
		<path d="m 48.52727,120.33151 0.432532,0.0535 q -0.10232,0.37905 -0.379047,0.58834 -0.276727,0.20929 -0.706933,0.20929 -0.541828,0 -0.860413,-0.33254 -0.31626,-0.33486 -0.31626,-0.93715 0,-0.62322 0.320911,-0.96738 0.320911,-0.34417 0.832507,-0.34417 0.495319,0 0.809253,0.33719 0.313934,0.33719 0.313934,0.94878 0,0.0372 -0.0023,0.11162 h -1.841748 q 0.02325,0.40695 0.230218,0.62322 0.206965,0.21626 0.516248,0.21626 0.230219,0 0.392999,-0.12092 0.162781,-0.12092 0.258124,-0.38602 z m -1.374335,-0.6767 h 1.378986 q -0.0279,-0.31161 -0.15813,-0.46742 -0.199988,-0.24184 -0.518573,-0.24184 -0.288354,0 -0.486017,0.19301 -0.195337,0.19301 -0.216266,0.51625 z" />
		<path d="m 49.480701,121.12681 v -2.46962 h 0.376721 v 0.3744 q 0.144177,-0.26278 0.2651,-0.34649 0.123248,-0.0837 0.269751,-0.0837 0.211615,0 0.430206,0.13488 l -0.144177,0.38834 q -0.153479,-0.0907 -0.306958,-0.0907 -0.137201,0 -0.246497,0.0837 -0.109295,0.0814 -0.155804,0.22789 -0.06976,0.22324 -0.06976,0.48834 v 1.29295 z" />
		<path d="m 53.457203,120.74776 q -0.151153,0.17441 -0.339514,0.28138 -0.186035,0.10464 -0.374396,0.10464 -0.206964,0 -0.402301,-0.12092 -0.195337,-0.12092 -0.318585,-0.37207 -0.120923,-0.25115 -0.120923,-0.55113 0,-0.36974 0.188361,-0.73949 0.190686,-0.37207 0.472064,-0.5581 0.281378,-0.18604 0.546478,-0.18604 0.202314,0 0.386023,0.10697 0.18371,0.10465 0.31626,0.32091 l 0.07906,-0.36044 h 0.416254 l -0.334864,1.56037 q -0.06976,0.32556 -0.06976,0.36044 0,0.0628 0.04651,0.1093 0.04883,0.0442 0.116272,0.0442 0.123248,0 0.323236,-0.14185 0.2651,-0.18604 0.418579,-0.49764 0.155804,-0.31394 0.155804,-0.64648 0,-0.38834 -0.199987,-0.72553 -0.197663,-0.33719 -0.592987,-0.53951 -0.393,-0.20231 -0.869715,-0.20231 -0.544153,0 -0.995288,0.2558 -0.44881,0.25347 -0.697632,0.73019 -0.246496,0.47439 -0.246496,1.01854 0,0.56973 0.246496,0.98134 0.248822,0.4116 0.716236,0.60694 0.469739,0.19766 1.039471,0.19766 0.609265,0 1.020868,-0.20464 0.411603,-0.20464 0.616241,-0.49765 h 0.420905 q -0.118597,0.24418 -0.406952,0.49765 -0.288354,0.25347 -0.686004,0.39997 -0.397651,0.14883 -0.958082,0.14883 -0.516247,0 -0.95343,-0.13255 -0.434857,-0.13255 -0.741815,-0.39997 -0.306958,-0.2651 -0.462762,-0.61159 -0.195337,-0.43951 -0.195337,-0.94878 0,-0.56741 0.232544,-1.08133 0.283703,-0.6302 0.804602,-0.96506 0.523224,-0.33486 1.267364,-0.33486 0.576709,0 1.034821,0.23719 0.460437,0.23487 0.725537,0.70228 0.225567,0.40231 0.225567,0.87437 0,0.67438 -0.474389,1.1976 -0.42323,0.46974 -0.925525,0.46974 -0.160455,0 -0.260449,-0.0488 -0.09767,-0.0488 -0.144177,-0.13953 -0.03023,-0.0581 -0.04418,-0.19999 z m -1.125512,-0.63019 q 0,0.31858 0.151153,0.49532 0.151154,0.17673 0.346491,0.17673 0.130224,0 0.274401,-0.0767 0.144178,-0.0791 0.274402,-0.23254 0.13255,-0.15348 0.216266,-0.38835 0.08372,-0.2372 0.08372,-0.47439 0,-0.31626 -0.15813,-0.49067 -0.155804,-0.17441 -0.381372,-0.17441 -0.148828,0 -0.281378,0.0767 -0.130225,0.0744 -0.253473,0.24185 -0.123248,0.16743 -0.197662,0.40695 -0.07441,0.23952 -0.07441,0.43951 z" />
		<path d="m 55.905889,121.12681 v -2.46962 h 0.376722 v 0.35114 q 0.272076,-0.40695 0.785998,-0.40695 0.223242,0 0.409278,0.0814 0.18836,0.0791 0.281378,0.20929 0.09302,0.13023 0.130224,0.30928 0.02326,0.11628 0.02326,0.40696 v 1.51851 h -0.418579 v -1.50224 q 0,-0.25579 -0.04884,-0.38137 -0.04883,-0.1279 -0.174408,-0.20231 -0.123248,-0.0767 -0.29068,-0.0767 -0.267425,0 -0.462762,0.16976 -0.193011,0.16975 -0.193011,0.64414 v 1.34876 z" />
		<path d="m 58.556891,118.19908 v -0.48137 h 0.418579 v 0.48137 z m 0,2.92773 v -2.46962 h 0.418579 v 2.46962 z" />
		<path d="m 61.224168,120.22221 0.411603,0.0535 q -0.06744,0.42555 -0.346491,0.6674 -0.276727,0.23952 -0.681353,0.23952 -0.506946,0 -0.81623,-0.33021 -0.306958,-0.33254 -0.306958,-0.95111 0,-0.39997 0.13255,-0.69996 0.13255,-0.29998 0.402301,-0.44881 0.272077,-0.15115 0.590662,-0.15115 0.402301,0 0.658099,0.20464 0.255799,0.20231 0.327887,0.57671 l -0.406952,0.0628 q -0.05814,-0.24883 -0.206964,-0.3744 -0.146502,-0.12557 -0.355792,-0.12557 -0.31626,0 -0.513922,0.22789 -0.197662,0.22557 -0.197662,0.71623 0,0.49765 0.190686,0.72322 0.190686,0.22556 0.497644,0.22556 0.246496,0 0.411602,-0.15115 0.165107,-0.15115 0.20929,-0.46509 z" />
		<path d="m 61.838086,119.892 q 0,-0.686 0.381372,-1.01622 0.318586,-0.2744 0.776697,-0.2744 0.509271,0 0.832507,0.33486 0.323236,0.33254 0.323236,0.92088 0,0.47671 -0.144177,0.75112 -0.141852,0.27207 -0.416253,0.42323 -0.272077,0.15115 -0.595313,0.15115 -0.518573,0 -0.839483,-0.33254 -0.318586,-0.33254 -0.318586,-0.95808 z m 0.430207,0 q 0,0.47439 0.206964,0.71158 0.206964,0.23487 0.520898,0.23487 0.311609,0 0.518573,-0.23719 0.206964,-0.2372 0.206964,-0.72321 0,-0.45811 -0.209289,-0.69298 -0.206964,-0.2372 -0.516248,-0.2372 -0.313934,0 -0.520898,0.23487 -0.206964,0.23487 -0.206964,0.70926 z" />
		<path d="m 64.633263,121.12681 v -3.4091 h 0.418579 v 3.4091 z" />
		<path d="m 67.319146,121.12681 v -0.36277 q -0.288355,0.41858 -0.783674,0.41858 -0.218591,0 -0.409277,-0.0837 -0.18836,-0.0837 -0.281378,-0.20929 -0.09069,-0.1279 -0.127899,-0.31161 -0.02558,-0.12324 -0.02558,-0.39067 v -1.53014 h 0.418579 v 1.36969 q 0,0.32788 0.02558,0.44183 0.03953,0.16511 0.167432,0.26045 0.127899,0.093 0.316259,0.093 0.188361,0 0.353467,-0.0953 0.165106,-0.0977 0.232544,-0.26277 0.06976,-0.16743 0.06976,-0.48369 v -1.32318 h 0.418579 v 2.46962 z" />
		<path d="m 68.181886,120.38964 0.413928,-0.0651 q 0.03488,0.24882 0.193012,0.38137 0.160455,0.13255 0.446484,0.13255 0.288354,0 0.427881,-0.11627 0.139526,-0.1186 0.139526,-0.27673 0,-0.14185 -0.123248,-0.22324 -0.08604,-0.0558 -0.427881,-0.14185 -0.460437,-0.11627 -0.639496,-0.19999 -0.176733,-0.086 -0.269751,-0.23487 -0.09069,-0.15115 -0.09069,-0.33253 0,-0.16511 0.07441,-0.30464 0.07674,-0.14185 0.206964,-0.23487 0.09767,-0.0721 0.2651,-0.12092 0.169757,-0.0512 0.362769,-0.0512 0.29068,0 0.509271,0.0837 0.220917,0.0837 0.325562,0.22789 0.104644,0.14185 0.144177,0.38137 l -0.409277,0.0558 q -0.02791,-0.19068 -0.162781,-0.29765 -0.13255,-0.10697 -0.376721,-0.10697 -0.288355,0 -0.411603,0.0953 -0.123248,0.0953 -0.123248,0.22324 0,0.0814 0.05116,0.1465 0.05116,0.0674 0.160456,0.11163 0.06279,0.0232 0.369744,0.10697 0.444159,0.11859 0.618567,0.19533 0.176734,0.0744 0.276728,0.21859 0.09999,0.14418 0.09999,0.35812 0,0.20929 -0.123248,0.39533 -0.120923,0.18371 -0.351141,0.28602 -0.230219,0.1 -0.520899,0.1 -0.481366,0 -0.734838,-0.19999 -0.251148,-0.19999 -0.320911,-0.59299 z" />
		<path d="m 70.563134,120.38964 0.413929,-0.0651 q 0.03488,0.24882 0.193011,0.38137 0.160455,0.13255 0.446484,0.13255 0.288355,0 0.427881,-0.11627 0.139527,-0.1186 0.139527,-0.27673 0,-0.14185 -0.123249,-0.22324 -0.08604,-0.0558 -0.427881,-0.14185 -0.460437,-0.11627 -0.639495,-0.19999 -0.176734,-0.086 -0.269751,-0.23487 -0.09069,-0.15115 -0.09069,-0.33253 0,-0.16511 0.07441,-0.30464 0.07674,-0.14185 0.206964,-0.23487 0.09767,-0.0721 0.2651,-0.12092 0.169757,-0.0512 0.362768,-0.0512 0.29068,0 0.509272,0.0837 0.220916,0.0837 0.325561,0.22789 0.104645,0.14185 0.144177,0.38137 l -0.409277,0.0558 q -0.02791,-0.19068 -0.162781,-0.29765 -0.13255,-0.10697 -0.376721,-0.10697 -0.288354,0 -0.411603,0.0953 -0.123248,0.0953 -0.123248,0.22324 0,0.0814 0.05116,0.1465 0.05116,0.0674 0.160455,0.11163 0.06279,0.0232 0.369745,0.10697 0.444159,0.11859 0.618567,0.19533 0.176733,0.0744 0.276727,0.21859 0.09999,0.14418 0.09999,0.35812 0,0.20929 -0.123248,0.39533 -0.120923,0.18371 -0.351142,0.28602 -0.230218,0.1 -0.520898,0.1 -0.481366,0 -0.734839,-0.19999 -0.251147,-0.19999 -0.320911,-0.59299 z" />
		<path d="m 73.11414,118.19908 v -0.48137 h 0.418579 v 0.48137 z m 0,2.92773 v -2.46962 h 0.418579 v 2.46962 z" />
		<path d="m 74.288487,121.12681 v -0.47672 h 0.476715 v 0.47672 z" />
		<path d="m 75.593061,121.12681 v -2.14406 h -0.369745 v -0.32556 h 0.369745 v -0.26277 q 0,-0.24883 0.04418,-0.36975 0.06046,-0.16278 0.211615,-0.26277 0.153479,-0.10232 0.427881,-0.10232 0.176733,0 0.390674,0.0419 l -0.06279,0.36509 q -0.130225,-0.0233 -0.246497,-0.0233 -0.190686,0 -0.269751,0.0814 -0.07906,0.0814 -0.07906,0.30463 v 0.22789 h 0.481366 v 0.32556 h -0.481366 v 2.14406 z" />
		<path d="m 76.811589,121.12681 v -2.46962 h 0.376722 v 0.3744 q 0.144177,-0.26278 0.2651,-0.34649 0.123248,-0.0837 0.269751,-0.0837 0.211615,0 0.430206,0.13488 l -0.144177,0.38834 q -0.153479,-0.0907 -0.306958,-0.0907 -0.137201,0 -0.246497,0.0837 -0.109296,0.0814 -0.155804,0.22789 -0.06976,0.22324 -0.06976,0.48834 v 1.29295 z" />
	</g>
</svg>
